<?xml version="1.0" encoding="UTF-8" standalone="no"?>
<svg
   xmlns:dc="http://purl.org/dc/elements/1.1/"
   xmlns:cc="http://creativecommons.org/ns#"
   xmlns:rdf="http://www.w3.org/1999/02/22-rdf-syntax-ns#"
   xmlns:svg="http://www.w3.org/2000/svg"
   xmlns="http://www.w3.org/2000/svg"
   xmlns:sodipodi="http://sodipodi.sourceforge.net/DTD/sodipodi-0.dtd"
   xmlns:inkscape="http://www.inkscape.org/namespaces/inkscape"
   id="svg8541"
   viewBox="0 0 347.64944 351.11877"
   version="1.1"
   sodipodi:docname="3d.svg"
   width="347.64944"
   height="351.11877"
   inkscape:version="0.92.2 5c3e80d, 2017-08-06">
  <defs
     id="defs35" />
  <sodipodi:namedview
     pagecolor="#ffffff"
     bordercolor="#666666"
     borderopacity="1"
     objecttolerance="10"
     gridtolerance="10"
     guidetolerance="10"
     inkscape:pageopacity="0"
     inkscape:pageshadow="2"
     inkscape:window-width="1366"
     inkscape:window-height="768"
     id="namedview33"
     showgrid="false"
     fit-margin-top="0"
     fit-margin-left="0"
     fit-margin-right="0"
     fit-margin-bottom="0"
     inkscape:zoom="1.1407989"
     inkscape:cx="56.305442"
     inkscape:cy="205.01781"
     inkscape:window-x="0"
     inkscape:window-y="0"
     inkscape:window-maximized="1"
     inkscape:current-layer="g3977" />
  <g
     id="layer1"
     transform="translate(11151.598,-11606.879)">
    <flowRoot
       id="flowRoot3759"
       style="color:#000000;font-size:27.4810009px;line-height:125%;font-family:ISOCPEUR;text-indent:0;letter-spacing:0px;word-spacing:0px;text-transform:none;fill:#000000"
       line-height="125%"
       xml:space="preserve"
       font-size="27.481px"
       transform="translate(-11103,7710.8)"><flowRegion
         id="flowRegion3761"><rect
           id="rect3763"
           y="2410"
           width="90"
           height="54"
           x="602" /></flowRegion><flowPara
         id="flowPara3765" /></flowRoot>    <g
       id="g3999"
       transform="translate(3.1755)">
      <g
         id="g3972"
         style="fill:none">
        <path
           id="path3813"
           d="m -11138,11929 78.627,-68.35 v -208.36 l -78.627,68.35 z"
           inkscape:connector-curvature="0" />
        <path
           id="path3815"
           d="m -11138,11929 78.627,-68.35 206.34,28.999 -78.628,68.349 z"
           inkscape:connector-curvature="0" />
        <path
           id="path3817"
           d="m -11059,11861 v -208.36 l 206.34,28.999 v 208.36 z"
           inkscape:connector-curvature="0" />
      </g>
      <g
         id="g3977">
        <g
           id="g3821"
           transform="matrix(0.14701,0,0,0.14701,-10031,10889)">
          <path
             id="path3823"
             d="m -5647.1,6779.1 c 0,0 0.7652,0.2028 1.1237,0.4397 0.5913,0.3905 1.1421,1.0318 1.6247,1.8913 0.4828,0.8596 0.9054,1.9518 1.2467,3.2218 0.3413,1.2699 0.607,2.7388 0.7837,4.3325 0.1762,1.5937 0.2672,3.3391 0.2672,5.1481 0,1.8089 -0.091,3.7119 -0.2672,5.6128 -0.1767,1.9009 -0.4424,3.8317 -0.7837,5.695 -0.3413,1.8633 -0.7639,3.6904 -1.2467,5.3891 -0.4826,1.6988 -1.0334,3.2976 -1.6247,4.716 -0.5912,1.4184 -1.2325,2.6801 -1.892,3.7215 -0.6592,1.0413 -1.3476,1.8799 -2.0302,2.4733 -0.6826,0.5934 -1.371,0.9516 -2.0304,1.0566 -0.2502,0.04 -0.7411,0.011 -0.7411,0.011 l -1334.5,-187.55 c 0,0 1.2429,0.08 1.8252,-0.025 0.9602,-0.1726 1.8549,-0.6107 2.6389,-1.2922 0.784,-0.6815 1.4705,-1.6179 2.0248,-2.7619 0.5544,-1.1441 0.986,-2.5149 1.2729,-4.0435 0.287,-1.5286 0.4342,-3.2406 0.4342,-5.0495 0,-1.809 -0.1472,-3.7454 -0.4342,-5.7114 -0.2869,-1.9661 -0.7185,-3.9949 -1.2729,-5.9841 -0.5543,-1.9891 -2.0248,-5.8489 -2.0248,-5.8489 l 13.02,-11.318 z"
             style="fill:#800000;fill-opacity:1"
             inkscape:connector-curvature="0" />
          <path
             id="path3825"
             d="m -6982.7,6604.5 c -1.7493,-1.0376 -3.6175,-1.9934 -5.5102,-2.8192 -1.8926,-0.8258 -3.8416,-1.5355 -5.7486,-2.0933 -1.907,-0.5578 -3.8041,-0.9731 -5.5954,-1.2248 -1.7914,-0.2518 -3.5072,-0.3443 -5.0608,-0.2728 -1.5537,0.072 -2.9713,0.308 -4.1813,0.6977 -1.2101,0.3898 -2.2329,0.9392 -3.0169,1.6207 -0.784,0.6816 -1.3424,1.5066 -1.6469,2.4334 -0.1962,0.5958 -0.2782,1.9192 -0.2782,1.9192 v -1347.7 c 0,0 0.038,-0.5078 0.1144,-0.7586 0.1957,-0.6383 0.6463,-1.2701 1.3289,-1.8636 0.6826,-0.5933 1.6088,-1.1584 2.7318,-1.6664 1.123,-0.5079 2.4617,-0.9676 3.9485,-1.3555 1.4869,-0.388 3.1469,-0.7111 4.8962,-0.9526 1.7494,-0.2416 3.6175,-0.4059 5.5102,-0.4846 1.8927,-0.079 3.8417,-0.073 5.7487,0.017 1.907,0.09 3.804,0.2647 5.5954,0.5165 1.7913,0.2518 3.5071,0.5843 5.0607,0.9812 1.5537,0.3968 2.9713,0.8643 4.1813,1.379 1.2101,0.5148 2.2329,1.0853 3.0169,1.6829 0.784,0.5977 1.3424,1.2323 1.6469,1.872 0.1776,0.3731 0.2706,0.7515 0.2785,1.1288 0.01,0.2697 -0.032,0.5388 -0.1139,0.8049 l 0.1146,1334.8 z"
             style="fill:#008000;fill-opacity:1"
             inkscape:connector-curvature="0" />
          <path
             id="path3827"
             d="m -7004.6,6598.1 c -1.5544,0.047 -2.9712,0.3079 -4.1813,0.6977 -1.2101,0.3897 -2.2371,0.9202 -3.021,1.6019 -0.7838,0.6817 -504.51,438.56 -505.78,439.66 -1.2667,1.1011 -2.3544,2.4029 -3.25,3.8438 -0.8953,1.4408 -1.5989,3.0364 -2.0625,4.7188 -0.4636,1.682 -0.6874,3.4721 -0.6875,5.2812 0,1.8086 0.2237,3.6561 0.6875,5.4688 0.4635,1.8122 1.1668,3.6512 2.0625,5.3437 0.8956,1.6926 2.0457,3.2929 3.3125,4.75 1.2666,1.4571 2.6672,2.7527 4.2187,3.875 1.5512,1.1227 3.2382,2.1015 4.9688,2.8125 1.7303,0.7114 3.5522,1.1858 5.3438,1.4375 1.7912,0.2524 3.6134,0.2875 5.3437,0.062 1.7303,-0.2251 3.386,-0.6884 4.9375,-1.375 1.5512,-0.6864 3.0145,-1.6177 4.2812,-2.7188 l 505.75,-439.66 c 0.7841,-0.6815 1.4772,-1.606 2.0313,-2.75 0.5544,-1.1441 0.9632,-2.5341 1.25,-4.0625 0.2869,-1.5287 0.4375,-3.1911 0.4375,-5 0,-1.8089 -0.1504,-3.7841 -0.4375,-5.75 -0.2869,-1.9662 -0.7269,-3.9796 -1.2813,-5.9687 -0.5545,-1.989 -1.2158,-3.9671 -2,-5.8438 -1.7492,-1.0376 -3.6072,-2.0177 -5.5,-2.8438 -1.8923,-0.826 -3.8743,-1.5359 -5.7812,-2.0937 -1.907,-0.5578 -3.6217,-0.9237 -5.5807,-1.2138 -1.8286,-0.2708 -3.4642,-0.3207 -5.0608,-0.2728 z"
             style="fill:#000080;fill-opacity:1"
             inkscape:connector-curvature="0" />
          <path
             id="path3829"
             d="m -6991.7,4883.2 -65.749,371.1 c -0.057,0.3216 -0.1728,0.6297 -0.2284,0.9442 -0.2857,1.6147 -0.049,3.2521 0.7158,4.8585 0.9135,1.9193 2.5978,3.8271 4.9498,5.62 2.352,1.7928 5.4166,3.4971 9.0469,5.0412 3.6301,1.5442 7.8888,2.9524 12.55,4.1427 4.661,1.1902 9.7953,2.1841 15.169,2.9394 5.3741,0.7553 11.078,1.2848 16.799,1.5536 5.721,0.2687 11.563,0.2816 17.241,0.046 5.6781,-0.2361 11.277,-0.7222 16.525,-1.4469 5.2482,-0.7247 10.237,-1.6993 14.697,-2.8633 4.4606,-1.164 8.4802,-2.5424 11.849,-4.0665 3.3689,-1.5241 6.146,-3.2154 8.1938,-4.9955 2.4143,-2.0987 3.388,-3.6746 3.9752,-5.5896 0.3655,-1.1921 0.4418,-2.4006 0.2284,-3.6096 z"
             style="fill:#00ff00;fill-opacity:1"
             inkscape:connector-curvature="0" />
          <path
             id="path3831"
             d="m -5279.4,6853 -360.87,-117.33 c -1.1604,-0.3772 -2.3699,-0.4691 -3.5943,-0.2741 -1.9781,0.3149 -4.0443,1.3877 -6.0922,3.1679 -2.0479,1.7802 -4.114,4.293 -6.0921,7.4172 -1.9781,3.1241 -3.8922,6.9087 -5.6657,11.164 -1.7735,4.2552 -3.4256,9.0527 -4.8737,14.149 -1.4481,5.0963 -2.7227,10.585 -3.7466,16.175 -1.024,5.5899 -1.8155,11.386 -2.3455,17.088 -0.5301,5.7028 -0.8072,11.403 -0.8072,16.83 0,5.427 0.2771,10.662 0.8072,15.444 0.53,4.7813 1.3215,9.197 2.3455,13.007 1.0239,3.8098 2.2985,7.0774 3.7466,9.6561 1.4481,2.5786 3.1002,4.509 4.8737,5.6808 1.475,0.9746 3.0481,1.4445 4.6757,1.386 125.88,-4.5195 377.64,-13.555 377.64,-13.555 z"
             style="fill:#ff0000;fill-opacity:1"
             inkscape:connector-curvature="0" />
          <path
             id="path3833"
             d="m -7644.2,7179.5 169.42,-63.297 c 0.9042,-0.3378 1.7887,-0.7087 2.6653,-1.0966 4.6541,-2.0593 8.9934,-4.8144 12.794,-8.1177 3.8001,-3.3034 7.1212,-7.2072 9.8083,-11.529 2.6871,-4.3222 4.7926,-9.1329 6.1835,-14.179 1.391,-5.0466 2.1018,-10.413 2.1018,-15.84 0,-5.3261 -0.7109,-11.011 -2.1018,-16.449 -1.3909,-5.4375 -3.4964,-10.823 -6.1835,-15.9 -2.6871,-5.0775 -6.0082,-9.9297 -9.8083,-14.301 -3.8001,-4.3715 -8.1394,-8.3446 -12.794,-11.712 -4.6541,-3.3675 -9.7043,-6.1815 -14.895,-8.3157 -5.191,-2.1342 -10.603,-3.6158 -15.977,-4.3711 -5.3742,-0.7553 -10.801,-0.7969 -15.992,-0.1218 -5.191,0.6751 -10.241,2.068 -14.895,4.1274 -4.6541,2.0593 -8.9935,4.8144 -12.794,8.1177 -3.8001,3.3034 -7.1212,7.2224 -9.8083,11.545 -0.5383,0.8658 -1.0484,1.7475 -1.5383,2.6501 z"
             style="fill:#0000ff;fill-opacity:1"
             inkscape:connector-curvature="0" />
        </g>
        <path
           id="path4047"
           style="color:#000000;text-indent:0;text-transform:none;fill:#00ff00;fill-opacity:1"
           d="m -11034.937,11645.731 v -3.45 l 15.976,-18.34 c -1.812,0.09 -3.411,0.142 -4.798,0.142 h -10.233 v -3.451 h 20.514 v 2.813 l -13.589,15.929 -2.624,2.907 c 1.907,-0.142 3.695,-0.213 5.365,-0.213 h 11.604 v 3.663 z"
           inkscape:connector-curvature="0" />
        <path
           id="path4043"
           style="color:#000000;text-indent:0;text-transform:none;fill:#ff0000"
           d="m -10898.222,11870.181 9.17,-13.046 -8.485,-12.053 h 5.318 l 3.852,5.885 c 0.725,1.118 1.308,2.056 1.749,2.812 0.693,-1.04 1.331,-1.962 1.914,-2.765 l 4.231,-5.932 h 5.081 l -8.674,11.817 9.336,13.282 h -5.223 l -5.153,-7.799 -1.37,-2.104 -6.594,9.903 z"
           inkscape:connector-curvature="0" />
        <path
           id="path4027"
           style="color:#000000;text-indent:0;text-transform:none;fill:#0000ff;fill-opacity:1"
           d="m -11147.027,11897.839 -0.473,-3.994 c 0.93,0.252 1.741,0.378 2.435,0.378 0.945,0 1.701,-0.157 2.269,-0.473 0.567,-0.315 1.032,-0.756 1.394,-1.323 0.268,-0.425 0.701,-1.481 1.3,-3.167 0.08,-0.236 0.205,-0.583 0.378,-1.04 l -9.524,-25.146 h 4.584 l 5.224,14.535 c 0.677,1.843 1.284,3.781 1.819,5.814 0.489,-1.954 1.072,-3.861 1.749,-5.72 l 5.365,-14.629 h 4.254 l -9.548,25.524 c -1.024,2.758 -1.82,4.656 -2.387,5.696 -0.756,1.402 -1.623,2.43 -2.6,3.084 -0.976,0.654 -2.142,0.981 -3.497,0.981 -0.82,0 -1.734,-0.173 -2.742,-0.52 z"
           inkscape:connector-curvature="0" />
      </g>
    </g>
  </g>
  <metadata
     id="metadata30">
    <rdf:RDF>
      <cc:Work>
        <dc:format>image/svg+xml</dc:format>
        <dc:type
           rdf:resource="http://purl.org/dc/dcmitype/StillImage" />
        <cc:license
           rdf:resource="http://creativecommons.org/publicdomain/zero/1.0/" />
        <dc:publisher>
          <cc:Agent
             rdf:about="http://openclipart.org/">
            <dc:title>Openclipart</dc:title>
          </cc:Agent>
        </dc:publisher>
        <dc:title></dc:title>
        <dc:date>2013-10-08T17:10:56</dc:date>
        <dc:description>For some design I was working in dimetry, depicted with this image. \nDimetry refers to that two of the axises scale factor is the same.\nThat description covers a large variety of axonometric views though. \nThe scale factors and the angles I chose result that if you mirror the y axis along x axis, you will get z axis. \n\nThere are similar dimetry-s that are used more often, like the so-called \nconventional axonometry. \nHere is an image of that (original author unknown).\nhttp://kepfeltoltes.hu/131008/konv_www.kepfeltoltes.hu_.png\n\nAnother commonly used one has it's axises at 97°; 131,5°; 131,5°, \nand some may even use different scale factors too. \n\nTo me this one seemed a more trivial choice. \n\nImage drawn with inkscape.\nThere are three invisible planes included in the svg, to make mapping of objects easier.</dc:description>
        <dc:source>https://openclipart.org/detail/184689/dimetry-by-lazur-urh-184689</dc:source>
        <dc:creator>
          <cc:Agent>
            <dc:title>Lazur URH</dc:title>
          </cc:Agent>
        </dc:creator>
        <dc:subject>
          <rdf:Bag>
            <rdf:li>2013</rdf:li>
            <rdf:li>2D</rdf:li>
            <rdf:li>3D</rdf:li>
            <rdf:li>Lazur</rdf:li>
            <rdf:li>URH</rdf:li>
            <rdf:li>axonometry</rdf:li>
            <rdf:li>descriptive</rdf:li>
            <rdf:li>dimetric</rdf:li>
            <rdf:li>dimetry</rdf:li>
            <rdf:li>geometry</rdf:li>
            <rdf:li>grid</rdf:li>
            <rdf:li>illustration</rdf:li>
            <rdf:li>non-conventional</rdf:li>
            <rdf:li>ortographic</rdf:li>
            <rdf:li>parallel</rdf:li>
            <rdf:li>projection</rdf:li>
          </rdf:Bag>
        </dc:subject>
      </cc:Work>
      <cc:License
         rdf:about="http://creativecommons.org/publicdomain/zero/1.0/">
        <cc:permits
           rdf:resource="http://creativecommons.org/ns#Reproduction" />
        <cc:permits
           rdf:resource="http://creativecommons.org/ns#Distribution" />
        <cc:permits
           rdf:resource="http://creativecommons.org/ns#DerivativeWorks" />
      </cc:License>
    </rdf:RDF>
  </metadata>
</svg>
